<svg width="47" height="77" viewBox="0 0 47 77" fill="none" xmlns="http://www.w3.org/2000/svg">
<ellipse cx="2.50085" cy="38.4292" rx="2.5" ry="2.61675" fill="#038C8C"/>
<path fill-rule="evenodd" clip-rule="evenodd" d="M1.50154 0.965888C2.76715 0.388197 4.24054 0.993772 4.79246 2.31848L17.0009 31.621L18.9615 26.9152L26.375 9.1213L29.2093 2.31848C29.5002 1.27042 31.2346 0.388197 32.5002 0.965888C33.7658 1.54358 34.3444 3.08578 33.7925 4.41048L4.79246 74.016C4.24054 75.3407 2.76715 75.9462 1.50154 75.3685C0.235939 74.7909 -0.342618 73.2487 0.209299 71.9239L5.22449 59.8866L10.2397 47.8492L14.2735 38.1672L9.09492 25.7377L3.91635 13.3081L0.209299 4.41048C-0.342618 3.08578 0.235939 1.54358 1.50154 0.965888Z" fill="#038C8C"/>
<path fill-rule="evenodd" clip-rule="evenodd" d="M45.5002 76.415C44.2346 76.9927 42.7612 76.3871 42.2093 75.0624L30.0008 45.7599L17.7924 75.0624C17.2405 76.3871 15.7671 76.9927 14.5015 76.415C13.2359 75.8373 12.6573 74.2951 13.2093 72.9704L42.2093 3.3649C42.7612 2.0402 44.2346 1.43462 45.5002 2.01231C46.7658 2.59001 47.3443 4.13221 46.7924 5.45691L32.7282 39.2136L46.7924 72.9704C47.3443 74.2951 46.7658 75.8373 45.5002 76.415Z" fill="#038C8C"/>
</svg>
