<svg width="54" height="38" viewBox="0 0 54 38" fill="none" xmlns="http://www.w3.org/2000/svg">
<path d="M51.478 24.4527L52.9364 24.8035L51.478 24.4527ZM40.6266 2.52102L41.2714 1.16668V1.16668L40.6266 2.52102ZM18.5454 21.6281L19.1098 20.2384L18.5454 21.6281ZM7.59664 4.30161C6.83656 3.9721 5.95328 4.32114 5.62376 5.08121L0.254037 17.4673C-0.0754762 18.2274 0.273562 19.1107 1.03364 19.4402C1.79371 19.7697 2.677 19.4207 3.00651 18.6606L7.7796 7.65072L18.7895 12.4238C19.5496 12.7533 20.4328 12.4043 20.7624 11.6442C21.0919 10.8841 20.7428 10.0009 19.9828 9.67134L7.59664 4.30161ZM36.9674 36C37.3431 37.4522 37.3435 37.4521 37.344 37.452C37.3443 37.4519 37.3448 37.4518 37.3453 37.4516C37.3462 37.4514 37.3473 37.4511 37.3487 37.4508C37.3513 37.4501 37.3547 37.4492 37.3588 37.4481C37.3671 37.4459 37.3784 37.4429 37.3926 37.4391C37.421 37.4315 37.461 37.4206 37.5119 37.4063C37.6138 37.3779 37.7596 37.3361 37.9434 37.2804C38.311 37.1692 38.8322 37.0023 39.4613 36.776C40.7163 36.3244 42.4178 35.6301 44.1928 34.6591C47.666 32.7589 51.7824 29.6001 52.9364 24.8035L50.0196 24.1018C49.1739 27.6167 46.035 30.2316 42.7529 32.0272C41.1502 32.904 39.599 33.5382 38.4457 33.9531C37.8707 34.16 37.3989 34.3108 37.0744 34.409C36.9123 34.4581 36.7873 34.4939 36.7049 34.5169C36.6638 34.5284 36.6333 34.5367 36.6142 34.5418C36.6047 34.5444 36.598 34.5462 36.5942 34.5472C36.5923 34.5477 36.5912 34.548 36.5908 34.5481C36.5906 34.5481 36.5906 34.5481 36.5907 34.5481C36.5908 34.548 36.5911 34.548 36.5912 34.548C36.5915 34.5479 36.5918 34.5478 36.9674 36ZM52.9364 24.8035C55.4788 14.2365 49.08 4.88424 41.2714 1.16668L39.9818 3.87536C46.7744 7.10925 52.1664 15.1791 50.0196 24.1018L52.9364 24.8035ZM41.2714 1.16668C39.7568 0.445569 38.2713 0.316715 36.8609 0.744426C35.497 1.15804 34.3479 2.04801 33.3706 3.0994C31.4501 5.16539 29.8223 8.27944 28.3166 11.1465C26.7484 14.1327 25.2971 16.8839 23.6775 18.6771C22.883 19.5569 22.1363 20.1015 21.4255 20.3538C20.7594 20.5901 20.0211 20.6085 19.1098 20.2384L17.9809 23.0179C19.5346 23.6489 21.0319 23.6767 22.4287 23.1811C23.7807 22.7013 24.9243 21.7726 25.9039 20.6878C27.8328 18.5521 29.4661 15.41 30.9726 12.5413C32.5418 9.55351 33.979 6.85115 35.5679 5.14193C36.3452 4.30571 37.0619 3.81838 37.7315 3.61533C38.3546 3.42637 39.0705 3.4415 39.9818 3.87536L41.2714 1.16668ZM19.1098 20.2384C17.8747 19.7367 16.5606 18.6331 15.2488 17.0932C13.9552 15.5747 12.7591 13.7458 11.732 11.9554C10.7081 10.1706 9.87101 8.45746 9.28941 7.18846C8.99911 6.55504 8.77367 6.03491 8.6216 5.67516C8.54559 5.49534 8.48798 5.35577 8.44985 5.26233C8.43079 5.21562 8.4166 5.18046 8.40742 5.15759C8.40283 5.14615 8.39949 5.13778 8.39742 5.13259C8.39638 5.12999 8.39566 5.12818 8.39527 5.12718C8.39507 5.12667 8.39495 5.12637 8.39491 5.12627C8.39489 5.12623 8.39492 5.1263 8.39491 5.12628C8.39496 5.12641 8.39503 5.12659 7 5.67785C5.60497 6.22911 5.60508 6.22939 5.60521 6.22972C5.60528 6.2299 5.60543 6.23028 5.60558 6.23064C5.60586 6.23136 5.60623 6.23228 5.60667 6.2334C5.60756 6.23565 5.60878 6.23871 5.61031 6.24257C5.61339 6.25029 5.61775 6.2612 5.62338 6.27522C5.63463 6.30326 5.65097 6.34373 5.67225 6.39589C5.71482 6.50019 5.7772 6.65128 5.85832 6.8432C6.02053 7.22693 6.25798 7.77459 6.56219 8.43836C7.16962 9.76374 8.04803 11.5626 9.12982 13.4483C10.2084 15.3284 11.5084 17.3286 12.9651 19.0386C14.4035 20.7272 16.0937 22.2514 17.9809 23.0179L19.1098 20.2384Z" fill="#038C8C"/>
</svg>
