<svg width="47" height="73" viewBox="0 0 47 73" fill="none" xmlns="http://www.w3.org/2000/svg">
<g clip-path="url(#clip0_49_18)">
<path d="M1.5013 0.209055C2.7669 -0.342862 4.24029 0.235695 4.79221 1.5013L17.0006 29.4965L29.2091 1.5013C29.5 0.5 31.2344 -0.342862 32.5 0.209055C33.7656 0.760972 34.3441 2.23436 33.7922 3.49997L4.79221 70C4.24029 71.2656 2.7669 71.8441 1.5013 71.2922C0.235695 70.7403 -0.342862 69.2669 0.209055 68.0013L14.2733 35.7506L0.209055 3.49997C-0.342862 2.23436 0.235695 0.760973 1.5013 0.209055Z" fill="#038C8C"/>
<path d="M5.00061 36.0006C5.00061 37.3813 3.88132 38.5006 2.50061 38.5006C1.1199 38.5006 0.000610362 37.3813 0.000610362 36.0006C0.000610362 34.6199 1.1199 33.5006 2.50061 33.5006C3.88132 33.5006 5.00061 34.6199 5.00061 36.0006Z" fill="#038C8C"/>
<path d="M42.209 70.9999C42.7609 72.2655 44.2343 72.8441 45.4999 72.2922C46.7655 71.7402 47.3441 70.2669 46.7922 69.0013L32.728 36.7506L46.7922 4.49992C47.3441 3.23432 46.7655 1.76093 45.4999 1.20901C44.2343 0.657089 42.7609 1.23565 42.209 2.50125L13.209 69.0013C12.6571 70.2669 13.2357 71.7402 14.5013 72.2922C15.7669 72.8441 17.2402 72.2655 17.7922 70.9999L30.0006 43.0047L42.209 70.9999Z" fill="#038C8C"/>
</g>
<defs>
<clipPath id="clip0_49_18">
<rect width="47" height="73" fill="white"/>
</clipPath>
</defs>
</svg>
