<svg width="1280" height="412" viewBox="0 0 1280 412" fill="none" xmlns="http://www.w3.org/2000/svg">
<path d="M-3 407.5V40.6967C-3 40.6967 9.75349 3.25088 29.8082 0.196689C56.3383 -3.84365 51.6804 55.6967 70.0728 56.1967C88.4653 56.6967 101.552 144.399 147.122 176.197C203.033 215.209 256.847 171.99 320.111 197.197C380.263 221.163 454.824 294.197 454.824 294.197L545.295 407.5H-3Z" fill="#2B2C33"/>
<path d="M174.96 253.632C104.851 243.145 -0.0174351 284.132 -0.0174351 284.132V412.132H1280V253.632C1280 253.632 1131.01 195.221 1039.9 205.132C979.419 211.712 950.841 238.997 891.769 253.632C781.09 281.053 715.352 288.971 601.467 284.132C520.302 280.684 476.676 259.781 395.67 253.632C309.721 247.109 260.215 266.385 174.96 253.632Z" fill="black"/>
</svg>
