<svg width="1280" height="608" viewBox="0 0 1280 608" fill="none" xmlns="http://www.w3.org/2000/svg">
<path d="M-4.5 258.5V607.5H1123.5C1123.5 607.5 1067.84 553.869 1028.5 524L1026.87 522.761C921.035 442.402 852.312 390.222 720 373.5C622.32 361.155 566.304 419.967 469.5 402C361.866 382.023 322.291 317.66 219.5 280C133.192 248.379 -4.5 258.5 -4.5 258.5Z" fill="#2C3434"/>
<path d="M1280 611H0V487.784C0 487.784 88.8284 397.724 164.564 376.89C286.42 343.368 225.208 518.681 477.186 460.771C796.811 387.316 771.884 502.133 917.859 413.855C1082.42 314.334 1046.75 141.166 1118.44 60.32C1189.37 -19.676 1280 4.39898 1280 4.39898V611Z" fill="black" stroke="black"/>
</svg>
