<svg width="282" height="130" viewBox="0 0 282 130" fill="none" xmlns="http://www.w3.org/2000/svg">
<rect width="282" height="50" fill="#038C8C"/>
<path fill-rule="evenodd" clip-rule="evenodd" d="M53.2778 82.8718L12.5 66.5L8.5 59.25V34.5L12.5 14H20L23 23V44V45.6918L27 45.709V23L30.5 14L37.5 17V44L38.5749 45.759L45.6052 45.7893L43.5 38V17H52.5L55.5 32L59.3631 45.8486L69.363 45.8918L63.409 38.0859L59.4871 17.0948L65.9946 15.377L74.4226 32.0816L86.8628 45.9673L87.6848 49.1038L90.1389 50.1218L94.5 50H107.5L104 55.8718L116.778 74.8718L156 130H104L76.2778 88.5L53.2778 82.8718Z" fill="black"/>
<path d="M12.5 66.5L12.3137 66.964L12.1483 66.8976L12.0622 66.7415L12.5 66.5ZM53.2778 82.8718L53.159 83.3575L53.1245 83.3491L53.0915 83.3358L53.2778 82.8718ZM8.5 59.25L8.06221 59.4915L8 59.3788V59.25H8.5ZM8.5 34.5H8V34.4517L8.00925 34.4042L8.5 34.5ZM12.5 14L12.0093 13.9042L12.0881 13.5H12.5V14ZM20 14V13.5H20.3604L20.4743 13.8419L20 14ZM23 23L23.4743 22.8419L23.5 22.9189V23H23ZM23 45.6918L22.9978 46.1918L22.5 46.1896V45.6918H23ZM27 45.709H27.5V46.2112L26.9978 46.209L27 45.709ZM27 23H26.5V22.9062L26.534 22.8188L27 23ZM30.5 14L30.034 13.8188L30.2215 13.3367L30.697 13.5404L30.5 14ZM37.5 17L37.697 16.5404L38 16.6703V17H37.5ZM37.5 44L37.0734 44.2607L37 44.1407V44H37.5ZM38.5749 45.759L38.5728 46.259L38.2938 46.2578L38.1483 46.0197L38.5749 45.759ZM45.6052 45.7893L46.0879 45.6588L46.2591 46.2921L45.6031 46.2893L45.6052 45.7893ZM43.5 38L43.0173 38.1305L43 38.0664V38H43.5ZM43.5 17H43V16.5H43.5V17ZM52.5 17V16.5H52.9099L52.9903 16.9019L52.5 17ZM55.5 32L55.0184 32.1343L55.0134 32.1164L55.0097 32.0981L55.5 32ZM59.3631 45.8486L59.3609 46.3486L58.983 46.347L58.8815 45.983L59.3631 45.8486ZM69.363 45.8918L69.7606 45.5885L70.3766 46.3962L69.3609 46.3918L69.363 45.8918ZM63.409 38.0859L63.0115 38.3891L62.9394 38.2946L62.9175 38.1777L63.409 38.0859ZM59.4871 17.0948L58.9956 17.1867L58.9103 16.73L59.3595 16.6114L59.4871 17.0948ZM65.9946 15.377L65.867 14.8935L66.2586 14.7902L66.441 15.1518L65.9946 15.377ZM74.4226 32.0816L74.0502 32.4153L74.006 32.366L73.9762 32.3069L74.4226 32.0816ZM86.8628 45.9673L87.2353 45.6336L87.3159 45.7236L87.3465 45.8405L86.8628 45.9673ZM87.6848 49.1038L87.4932 49.5656L87.264 49.4705L87.2011 49.2305L87.6848 49.1038ZM90.1389 50.1218L90.1529 50.6216L90.046 50.6246L89.9473 50.5837L90.1389 50.1218ZM94.5 50L94.486 49.5H94.5V50ZM107.5 50V49.5H108.38L107.929 50.256L107.5 50ZM104 55.8718L103.585 56.1509L103.408 55.888L103.571 55.6158L104 55.8718ZM116.778 74.8718L116.37 75.1618L116.363 75.1509L116.778 74.8718ZM156 130L156.407 129.71L156.969 130.5H156V130ZM104 130V130.5H103.733L103.584 130.278L104 130ZM76.2778 88.5L76.3967 88.0143L76.5856 88.0606L76.6936 88.2223L76.2778 88.5ZM12.6863 66.036L53.4641 82.4078L53.0915 83.3358L12.3137 66.964L12.6863 66.036ZM8.93779 59.0085L12.9378 66.2585L12.0622 66.7415L8.06221 59.4915L8.93779 59.0085ZM9 34.5V59.25H8V34.5H9ZM12.9907 14.0958L8.99075 34.5958L8.00925 34.4042L12.0093 13.9042L12.9907 14.0958ZM20 14.5H12.5V13.5H20V14.5ZM22.5257 23.1581L19.5257 14.1581L20.4743 13.8419L23.4743 22.8419L22.5257 23.1581ZM22.5 44V23H23.5V44H22.5ZM22.5 45.6918V44H23.5V45.6918H22.5ZM26.9978 46.209L22.9978 46.1918L23.0022 45.1918L27.0022 45.2091L26.9978 46.209ZM27.5 23V45.709H26.5V23H27.5ZM30.966 14.1812L27.466 23.1812L26.534 22.8188L30.034 13.8188L30.966 14.1812ZM37.303 17.4596L30.303 14.4596L30.697 13.5404L37.697 16.5404L37.303 17.4596ZM37 44V17H38V44H37ZM38.1483 46.0197L37.0734 44.2607L37.9266 43.7393L39.0016 45.4982L38.1483 46.0197ZM45.6031 46.2893L38.5728 46.259L38.5771 45.259L45.6074 45.2893L45.6031 46.2893ZM43.9827 37.8695L46.0879 45.6588L45.1225 45.9198L43.0173 38.1305L43.9827 37.8695ZM44 17V38H43V17H44ZM52.5 17.5H43.5V16.5H52.5V17.5ZM55.0097 32.0981L52.0097 17.0981L52.9903 16.9019L55.9903 31.9019L55.0097 32.0981ZM58.8815 45.983L55.0184 32.1343L55.9816 31.8657L59.8447 45.7143L58.8815 45.983ZM69.3609 46.3918L59.3609 46.3486L59.3653 45.3487L69.3652 45.3918L69.3609 46.3918ZM63.8066 37.7826L69.7606 45.5885L68.9655 46.195L63.0115 38.3891L63.8066 37.7826ZM59.9786 17.003L63.9005 37.9941L62.9175 38.1777L58.9956 17.1867L59.9786 17.003ZM66.1222 15.8604L59.6148 17.5783L59.3595 16.6114L65.867 14.8935L66.1222 15.8604ZM73.9762 32.3069L65.5482 15.6022L66.441 15.1518L74.869 31.8564L73.9762 32.3069ZM86.4904 46.3009L74.0502 32.4153L74.795 31.748L87.2353 45.6336L86.4904 46.3009ZM87.2011 49.2305L86.3792 46.094L87.3465 45.8405L88.1684 48.977L87.2011 49.2305ZM89.9473 50.5837L87.4932 49.5656L87.8764 48.6419L90.3305 49.66L89.9473 50.5837ZM94.514 50.4998L90.1529 50.6216L90.125 49.622L94.486 49.5002L94.514 50.4998ZM107.5 50.5H94.5V49.5H107.5V50.5ZM103.571 55.6158L107.071 49.744L107.929 50.256L104.429 56.1278L103.571 55.6158ZM116.363 75.1509L103.585 56.1509L104.415 55.5928L117.193 74.5928L116.363 75.1509ZM155.593 130.29L116.37 75.1617L117.185 74.582L156.407 129.71L155.593 130.29ZM104 129.5H156V130.5H104V129.5ZM76.6936 88.2223L104.416 129.722L103.584 130.278L75.8621 88.7777L76.6936 88.2223ZM53.3967 82.3862L76.3967 88.0143L76.159 88.9857L53.159 83.3575L53.3967 82.3862Z" fill="black"/>
<path d="M153.192 26.912C153.192 27.4133 153.091 27.8773 152.888 28.304C152.696 28.72 152.371 29.0827 151.912 29.392C151.453 29.6907 150.845 29.9253 150.088 30.096C149.341 30.2667 148.408 30.352 147.288 30.352C146.168 30.352 145.251 30.224 144.536 29.968C143.832 29.712 143.272 29.3867 142.856 28.992C142.451 28.5867 142.157 28.144 141.976 27.664C141.805 27.1733 141.699 26.6933 141.656 26.224H143.352C143.416 27.088 143.779 27.76 144.44 28.24C145.112 28.7093 146.077 28.944 147.336 28.944C148.637 28.944 149.661 28.7947 150.408 28.496C151.165 28.1867 151.549 27.696 151.56 27.024C151.571 26.352 151.24 25.872 150.568 25.584C149.896 25.296 148.851 25.1093 147.432 25.024C146.493 24.992 145.677 24.928 144.984 24.832C144.301 24.736 143.736 24.576 143.288 24.352C142.84 24.128 142.509 23.824 142.296 23.44C142.083 23.056 141.976 22.5547 141.976 21.936C141.976 21.4773 142.083 21.04 142.296 20.624C142.509 20.208 142.845 19.8453 143.304 19.536C143.773 19.216 144.371 18.9653 145.096 18.784C145.821 18.592 146.696 18.496 147.72 18.496C148.819 18.496 149.709 18.6187 150.392 18.864C151.085 19.1093 151.629 19.424 152.024 19.808C152.429 20.192 152.712 20.624 152.872 21.104C153.043 21.584 153.149 22.0587 153.192 22.528H151.496C151.453 22.0267 151.331 21.6107 151.128 21.28C150.925 20.9387 150.653 20.6667 150.312 20.464C149.981 20.2613 149.592 20.1173 149.144 20.032C148.696 19.9467 148.205 19.904 147.672 19.904C147.064 19.904 146.509 19.9413 146.008 20.016C145.517 20.0907 145.091 20.208 144.728 20.368C144.376 20.5173 144.099 20.7147 143.896 20.96C143.704 21.1947 143.608 21.4827 143.608 21.824C143.608 22.1547 143.683 22.432 143.832 22.656C143.992 22.8693 144.237 23.0453 144.568 23.184C144.899 23.312 145.32 23.4133 145.832 23.488C146.355 23.552 146.968 23.6053 147.672 23.648C148.653 23.7013 149.491 23.792 150.184 23.92C150.877 24.0373 151.448 24.2187 151.896 24.464C152.344 24.7093 152.669 25.0293 152.872 25.424C153.085 25.8187 153.192 26.3147 153.192 26.912ZM167.332 25.488C167.268 27.1627 166.783 28.3893 165.876 29.168C164.969 29.936 163.631 30.32 161.86 30.32C160.089 30.32 158.745 29.9307 157.828 29.152C156.921 28.3627 156.441 27.1413 156.388 25.488V18.8H157.956V24.752C157.956 25.36 157.999 25.92 158.084 26.432C158.169 26.944 158.345 27.3867 158.612 27.76C158.889 28.1227 159.279 28.4053 159.78 28.608C160.292 28.8107 160.98 28.912 161.844 28.912C162.708 28.912 163.396 28.816 163.908 28.624C164.431 28.4213 164.825 28.1387 165.092 27.776C165.369 27.4133 165.551 26.9813 165.636 26.48C165.721 25.968 165.764 25.4027 165.764 24.784V18.8H167.332V25.488ZM182.752 26.736C182.752 27.8987 182.384 28.736 181.648 29.248C180.922 29.7493 179.856 30 178.448 30H171.008V18.8H178C178.629 18.8 179.194 18.8427 179.696 18.928C180.208 19.0027 180.645 19.1467 181.008 19.36C181.37 19.5627 181.648 19.84 181.84 20.192C182.042 20.5333 182.144 20.976 182.144 21.52C182.144 22.096 182.021 22.5707 181.776 22.944C181.53 23.3067 181.216 23.6 180.832 23.824C181.461 24.048 181.936 24.384 182.256 24.832C182.586 25.2693 182.752 25.904 182.752 26.736ZM172.576 23.264H177.856C178.314 23.264 178.709 23.2427 179.04 23.2C179.37 23.1573 179.637 23.0773 179.84 22.96C180.053 22.8427 180.208 22.6827 180.304 22.48C180.41 22.2667 180.464 22 180.464 21.68C180.464 21.36 180.405 21.104 180.288 20.912C180.181 20.7093 180.016 20.56 179.792 20.464C179.578 20.3573 179.306 20.288 178.976 20.256C178.645 20.224 178.261 20.208 177.824 20.208H172.576V23.264ZM172.576 28.592H178.448C178.992 28.592 179.434 28.5493 179.776 28.464C180.117 28.368 180.378 28.2347 180.56 28.064C180.752 27.8827 180.88 27.6693 180.944 27.424C181.018 27.1787 181.056 26.9067 181.056 26.608C181.056 26.2987 181.024 26.0267 180.96 25.792C180.896 25.5573 180.768 25.3547 180.576 25.184C180.384 25.0133 180.112 24.8853 179.76 24.8C179.418 24.7147 178.965 24.672 178.4 24.672H172.576V28.592ZM189.675 25.088L187.419 30H185.627L188.059 25.008L186.987 18.8H191.771L193.675 28.944L195.74 18.8H198.54L200.939 30H199.323L197.115 19.696L195.083 30H192.267L190.427 20.176H188.827L189.675 25.088ZM214.465 28.592V30H204.145V28.592H208.481V20.208H204.145V18.8H214.465V20.208H210.049V28.592H214.465ZM223.895 20.208V30H222.327V20.208H217.351V18.8H228.887V20.208H223.895Z" fill="white"/>
</svg>
