<svg width="213" height="155" viewBox="0 0 213 155" fill="none" xmlns="http://www.w3.org/2000/svg">
<path d="M0 -0.000125885L213 -0.000125885C213 -0.000125885 198 43 143.5 43C89 43 89.5 127.5 62 145C29.8197 165.478 0 145 0 145V-0.000125885Z" fill="black"/>
<circle cx="40.5006" cy="52.0006" r="2.5" fill="#038C8C"/>
<path fill-rule="evenodd" clip-rule="evenodd" d="M39.5013 16.2091C40.7669 15.6571 42.2403 16.2357 42.7922 17.5013L55.0006 45.4965L56.9612 41.0006L64.3748 24.0006L67.2091 17.5013C67.5 16.5 69.2344 15.6571 70.5 16.2091C71.7656 16.761 72.3441 18.2344 71.7922 19.5L42.7922 86C42.2403 87.2656 40.7669 87.8441 39.5013 87.2922C38.2357 86.7403 37.6571 85.2669 38.2091 84.0013L43.2242 72.501L48.2394 61.0006L52.2733 51.7506L47.0947 39.8756L41.9161 28.0006L38.2091 19.5C37.6571 18.2344 38.2357 16.761 39.5013 16.2091Z" fill="#038C8C"/>
<path fill-rule="evenodd" clip-rule="evenodd" d="M83.4999 88.2922C82.2343 88.8441 80.7609 88.2655 80.209 86.9999L68.0006 59.0047L55.7922 86.9999C55.2402 88.2655 53.7669 88.8441 52.5013 88.2922C51.2356 87.7402 50.6571 86.2669 51.209 85.0013L80.209 18.5013C80.7609 17.2356 82.2343 16.6571 83.4999 17.209C84.7655 17.7609 85.3441 19.2343 84.7922 20.4999L70.728 52.7506L84.7922 85.0013C85.3441 86.2669 84.7655 87.7402 83.4999 88.2922Z" fill="#038C8C"/>
</svg>
