<svg width="284" height="140" viewBox="0 0 284 140" fill="none" xmlns="http://www.w3.org/2000/svg">
<path d="M0 0H284C284 0 284 6.99449 284 36C273.928 48.2731 251.937 69.7339 207.444 71.3485C87.7648 75.6914 101 140 58.8352 140C16.6703 140 0 94.0679 0 94.0679V0Z" fill="black"/>
<circle cx="35.5005" cy="52.0005" r="2.5" fill="#038C8C"/>
<path fill-rule="evenodd" clip-rule="evenodd" d="M34.5013 16.2091C35.7669 15.6571 37.2403 16.2357 37.7922 17.5013L50.0006 45.4965L51.9612 41.0006L59.3748 24.0006L62.2091 17.5013C62.5 16.5 64.2344 15.6571 65.5 16.2091C66.7656 16.761 67.3441 18.2344 66.7922 19.5L37.7922 86C37.2403 87.2656 35.7669 87.8441 34.5013 87.2922C33.2357 86.7403 32.6571 85.2669 33.2091 84.0013L38.2242 72.501L43.2394 61.0006L47.2733 51.7506L42.0947 39.8756L36.9161 28.0006L33.2091 19.5C32.6571 18.2344 33.2357 16.761 34.5013 16.2091Z" fill="#038C8C"/>
<path fill-rule="evenodd" clip-rule="evenodd" d="M78.4997 88.2919C77.2341 88.8438 75.7607 88.2653 75.2088 86.9997L63.0003 59.0045L50.7919 86.9997C50.24 88.2653 48.7666 88.8438 47.501 88.2919C46.2354 87.74 45.6568 86.2666 46.2088 85.001L75.2088 18.501C75.7607 17.2354 77.2341 16.6568 78.4997 17.2088C79.7653 17.7607 80.3438 19.2341 79.7919 20.4997L65.7277 52.7503L79.7919 85.001C80.3438 86.2666 79.7653 87.74 78.4997 88.2919Z" fill="#038C8C"/>
</svg>
