<svg width="333" height="207" viewBox="0 0 333 207" fill="none" xmlns="http://www.w3.org/2000/svg">
<path d="M0 0H331.5C331.5 0 351 94 242.5 101C134 108 102.5 206.5 56.5 206.5C10.5 206.5 0 145 0 145V0Z" fill="black"/>
<circle cx="40.5005" cy="52.0005" r="2.5" fill="#038C8C"/>
<path fill-rule="evenodd" clip-rule="evenodd" d="M39.5013 16.2091C40.7669 15.6571 42.2403 16.2357 42.7922 17.5013L55.0006 45.4965L56.9612 41.0006L64.3748 24.0006L67.2091 17.5013C67.5 16.5 69.2344 15.6571 70.5 16.2091C71.7656 16.761 72.3441 18.2344 71.7922 19.5L42.7922 86C42.2403 87.2656 40.7669 87.8441 39.5013 87.2922C38.2357 86.7403 37.6571 85.2669 38.2091 84.0013L43.2242 72.501L48.2394 61.0006L52.2733 51.7506L47.0947 39.8756L41.9161 28.0006L38.2091 19.5C37.6571 18.2344 38.2357 16.761 39.5013 16.2091Z" fill="#038C8C"/>
<path fill-rule="evenodd" clip-rule="evenodd" d="M83.4997 88.2919C82.2341 88.8438 80.7607 88.2653 80.2088 86.9997L68.0003 59.0045L55.7919 86.9997C55.24 88.2653 53.7666 88.8438 52.501 88.2919C51.2354 87.74 50.6568 86.2666 51.2088 85.001L80.2088 18.501C80.7607 17.2354 82.2341 16.6568 83.4997 17.2088C84.7653 17.7607 85.3438 19.2341 84.7919 20.4997L70.7277 52.7503L84.7919 85.001C85.3438 86.2666 84.7653 87.74 83.4997 88.2919Z" fill="#038C8C"/>
</svg>
